<?xml version="1.0" encoding="utf-8"?>
<!-- Svg Vector Icons : http://www.onlinewebfonts.com/icon -->
<!DOCTYPE svg PUBLIC "-//W3C//DTD SVG 1.1//EN" "http://www.w3.org/Graphics/SVG/1.1/DTD/svg11.dtd">
<svg version="1.1" xmlns="http://www.w3.org/2000/svg" xmlns:xlink="http://www.w3.org/1999/xlink" x="0px" y="0px" viewBox="0 0 1000 1000" enable-background="new 0 0 1000 1000" xml:space="preserve">
<metadata> Svg Vector Icons : http://www.onlinewebfonts.com/icon </metadata>
<g><g transform="translate(0.000000,511.000000) scale(0.100000,-0.100000)"><path d="M209.6,2580.4c-166-89.9-136.7-369.2,43-431.7c84-29.3,414.1-33.2,509.9-5.9c197.3,54.7,246.1,310.6,78.1,423.9c-60.6,41-87.9,44.9-322.3,44.9C330.7,2609.7,248.6,2601.9,209.6,2580.4z"/><path d="M1356.3,2547.2c-128.9-128.9-101.6-314.5,56.7-386.8c74.2-33.2,148.5-37.1,1072.5-37.1h990.4l74.2-66.4c66.4-62.5,72.3-76.2,72.3-175.8c0-95.7-7.8-115.3-64.5-171.9l-62.5-64.5l-1246.3-9.8c-1146.7-9.8-1250.2-11.7-1299.1-44.9c-127-84-144.6-263.7-35.2-373.1l60.6-60.6l1584.3-9.8l1584.3-9.8l66.4-72.3c54.7-60.6,66.4-89.9,66.4-158.2c0-109.4-64.5-211-156.3-242.2c-50.8-17.6-377-23.4-1199.4-23.4l-1129.1-2l-66.4-66.4c-58.6-58.6-66.4-78.1-66.4-168s7.8-109.4,66.4-168l66.4-66.4h601.7c664.2,0,691.5-3.9,777.5-123c50.8-68.4,52.7-199.3,3.9-271.5c-76.2-115.3-44.9-113.3-1441.7-113.3c-1228.7,0-1277.6-2-1338.1-39.1C317-424.1,285.8-482.7,285.8-582.3c0-97.7,46.9-171.9,132.8-212.9c58.6-29.3,359.4-31.3,3197.8-27.3l3131.4,5.9l111.3,54.7c119.2,58.6,205.1,144.6,273.5,273.5l44.9,82.1l5.9,1267.8c5.8,1467.1,13.7,1392.8-170,1576.5c-189.5,189.5,72.3,173.9-2947.8,173.9h-2645L1356.3,2547.2z"/><path d="M7695.3,1687.6c-58.6-31.3-107.4-78.1-146.5-140.7l-58.6-93.8l-9.8-1008l-9.8-1008l-52.7-111.4c-66.4-144.6-209-285.2-357.5-359.4l-117.2-56.6L4560-1100c-2172.3-9.8-2389.1-11.7-2441.8-43c-259.8-142.6-302.8-500.1-82.1-693.5c56.7-48.8,209-117.2,218.8-97.7c2,1.9,11.7,54.7,25.4,119.2c46.9,238.3,189.5,425.9,404.4,531.4c105.5,50.8,136.7,56.7,312.6,56.7c177.8,0,205.1-5.9,306.7-56.7c218.8-109.4,359.4-295,408.3-535.2l25.4-121.1h91.8c97.7,0,115.3,17.6,115.3,107.4c0,181.7,203.2,451.3,414.1,548.9c109.4,50.8,144.6,56.7,308.6,56.7c160.2,0,201.2-7.8,296.9-52.8c218.8-101.6,392.7-336,420-560.7l11.7-99.6h1117.4h1119.3l11.7,44.9c5.8,23.4,11.7,58.6,11.7,76.2c0,19.5,17.6,82,41,142.6c56.7,152.4,216.8,320.4,373.1,392.6c109.4,50.8,144.6,56.7,308.6,56.7c160.2,0,201.2-7.8,296.9-52.8c218.8-101.6,392.6-336,420-560.7l11.7-99.6h214.9c263.7,0,351.6,25.4,455.2,127c132.9,134.8,160.2,324.3,66.4,500.1l-41,82.1l44.9,89.9c43,86,44.9,113.3,50.8,586c9.8,695.4-41,992.4-224.7,1361.6c-187.5,377-529.4,689.6-929.8,851.7l-160.2,64.5l-400.5,5.9C7793,1734.5,7781.3,1732.6,7695.3,1687.6z"/><path d="M639.3,607.4c-103.5-54.7-142.6-205.1-84-320.4c50.8-99.6,115.2-117.2,408.3-117.2c252,0,265.7,2,322.3,48.8c121.1,103.5,121.1,267.6,0,371.2c-56.6,46.9-68.4,48.8-326.2,48.8C760.5,636.7,678.4,628.9,639.3,607.4z"/><path d="M2889.8-1508.2c-246.1-80.1-380.9-295-330.1-531.4c62.5-291.1,377-435.6,644.6-295c314.5,164.1,312.6,623.2-3.9,785.3C3118.3-1506.3,2960.1-1484.8,2889.8-1508.2z"/><path d="M4534.6-1518c-326.2-105.5-423.9-513.8-177.8-748.2c269.6-255.9,701.3-99.6,752.1,273.5C5151.9-1684.1,4833.5-1420.3,4534.6-1518z"/><path d="M8263.8-1510.2c-181.7-43-334-242.2-334-437.6c1.9-248.1,201.2-441.5,453.2-441.5c134.8,1.9,244.2,52.7,332.1,156.3c214.9,250,93.8,634.9-228.6,720.8C8398.6-1488.7,8359.5-1488.7,8263.8-1510.2z"/></g></g>
</svg>